<svg width="95" height="20" viewBox="0 0 95 20" fill="none" xmlns="http://www.w3.org/2000/svg">
<rect width="95" height="20" rx="10" fill="white"/>
<path d="M31.562 14C31.0853 14 30.847 13.758 30.847 13.274V6.927C30.847 6.45033 31.0817 6.212 31.551 6.212C32.0203 6.212 32.255 6.45033 32.255 6.927V12.801H35.445C35.8557 12.801 36.061 12.999 36.061 13.395C36.061 13.7983 35.8557 14 35.445 14H31.562ZM37.7278 14.088C37.2584 14.088 37.0238 13.846 37.0238 13.362V6.883C37.0238 6.399 37.2584 6.157 37.7278 6.157C38.1971 6.157 38.4318 6.399 38.4318 6.883V13.362C38.4318 13.846 38.1971 14.088 37.7278 14.088ZM43.2083 14.088C42.8343 14.088 42.5666 13.9047 42.4053 13.538L39.5343 7.092C39.4169 6.81333 39.4206 6.58967 39.5453 6.421C39.6773 6.245 39.8679 6.157 40.1173 6.157C40.3299 6.157 40.4876 6.20467 40.5903 6.3C40.7003 6.388 40.7919 6.52367 40.8653 6.707L43.2303 12.196L45.5953 6.696C45.6759 6.52 45.7713 6.388 45.8813 6.3C45.9913 6.20467 46.1453 6.157 46.3433 6.157C46.5779 6.157 46.7539 6.245 46.8713 6.421C46.9959 6.597 46.9959 6.82067 46.8713 7.092L44.0003 13.538C43.9196 13.7213 43.8169 13.8607 43.6923 13.956C43.5749 14.044 43.4136 14.088 43.2083 14.088ZM48.718 14C48.2194 14 47.97 13.7507 47.97 13.252V6.993C47.97 6.49433 48.2194 6.245 48.718 6.245H52.645C53.0264 6.245 53.217 6.42833 53.217 6.795C53.217 7.17633 53.0264 7.367 52.645 7.367H49.323V9.501H52.403C52.7844 9.501 52.975 9.688 52.975 10.062C52.975 10.436 52.7844 10.623 52.403 10.623H49.323V12.878H52.645C53.0264 12.878 53.217 13.065 53.217 13.439C53.217 13.813 53.0264 14 52.645 14H48.718ZM58.1799 14.088C57.7399 14.088 57.5199 13.8607 57.5199 13.406V6.861C57.5199 6.63367 57.5749 6.46133 57.6849 6.344C57.8022 6.21933 57.9525 6.157 58.1359 6.157C58.3045 6.157 58.4292 6.19 58.5099 6.256C58.5979 6.31467 58.7005 6.41733 58.8179 6.564L62.7449 11.657V6.828C62.7449 6.38067 62.9649 6.157 63.4049 6.157C63.8375 6.157 64.0539 6.38067 64.0539 6.828V13.428C64.0539 13.6333 64.0025 13.7947 63.8999 13.912C63.7972 14.0293 63.6579 14.088 63.4819 14.088C63.3132 14.088 63.1775 14.055 63.0749 13.989C62.9795 13.923 62.8732 13.8167 62.7559 13.67L58.8289 8.566V13.406C58.8289 13.8607 58.6125 14.088 58.1799 14.088ZM69.2244 14.11C68.4764 14.11 67.82 13.945 67.2554 13.615C66.698 13.285 66.2654 12.823 65.9574 12.229C65.6494 11.6277 65.4954 10.9237 65.4954 10.117C65.4954 9.303 65.6494 8.599 65.9574 8.005C66.2654 7.411 66.698 6.95267 67.2554 6.63C67.8127 6.3 68.469 6.135 69.2244 6.135C69.9797 6.135 70.636 6.3 71.1934 6.63C71.7507 6.95267 72.1834 7.411 72.4914 8.005C72.7994 8.599 72.9534 9.29933 72.9534 10.106C72.9534 10.92 72.7994 11.6277 72.4914 12.229C72.1834 12.823 71.7507 13.285 71.1934 13.615C70.636 13.945 69.9797 14.11 69.2244 14.11ZM69.2244 12.9C69.9357 12.9 70.4894 12.6543 70.8854 12.163C71.2814 11.6717 71.4794 10.9897 71.4794 10.117C71.4794 9.237 71.2814 8.555 70.8854 8.071C70.4967 7.587 69.943 7.345 69.2244 7.345C68.513 7.345 67.9594 7.587 67.5634 8.071C67.1674 8.555 66.9694 9.237 66.9694 10.117C66.9694 10.9897 67.1674 11.6717 67.5634 12.163C67.9594 12.6543 68.513 12.9 69.2244 12.9ZM76.9197 14.088C76.5457 14.088 76.2891 13.89 76.1497 13.494L73.8507 6.993C73.7701 6.75833 73.7847 6.56033 73.8947 6.399C74.0121 6.23767 74.2064 6.157 74.4777 6.157C74.6757 6.157 74.8297 6.20467 74.9397 6.3C75.0497 6.388 75.1377 6.531 75.2037 6.729L76.9637 11.965L78.8117 6.74C78.9511 6.35133 79.1857 6.157 79.5157 6.157C79.6917 6.157 79.8311 6.20467 79.9337 6.3C80.0364 6.39533 80.1244 6.54567 80.1977 6.751L82.0127 12.042L83.8277 6.729C83.8937 6.53833 83.9817 6.39533 84.0917 6.3C84.2017 6.20467 84.3521 6.157 84.5427 6.157C84.7774 6.157 84.9497 6.23767 85.0597 6.399C85.1697 6.56033 85.1844 6.75833 85.1037 6.993L82.7827 13.505C82.7094 13.703 82.6141 13.8497 82.4967 13.945C82.3794 14.0403 82.2217 14.088 82.0237 14.088C81.8257 14.088 81.6681 14.0403 81.5507 13.945C81.4334 13.8497 81.3381 13.6993 81.2647 13.494L79.4717 8.401L77.6677 13.505C77.5944 13.703 77.4991 13.8497 77.3817 13.945C77.2717 14.0403 77.1177 14.088 76.9197 14.088Z" fill="#FF5E32"/>
<path d="M12.0859 7.07031L11.7852 6.76953C11.7031 6.6875 11.5664 6.63281 11.4844 6.63281C11.3477 6.63281 11.2109 6.71484 11.1289 6.79687C10.5273 7.50781 10.0352 8.84765 10.0352 9.75C10.0352 10.6797 10.5273 12.0195 11.1289 12.7305C11.2109 12.8125 11.3477 12.8945 11.4844 12.8945C11.5664 12.8945 11.7031 12.8398 11.7852 12.7578L12.0859 12.457C12.168 12.4023 12.2227 12.2656 12.2227 12.1562C12.2227 12.0742 12.1953 11.9648 12.1406 11.9102C11.7031 11.3906 11.375 10.4336 11.375 9.75C11.375 9.09375 11.7031 8.13672 12.1406 7.61719C12.1953 7.5625 12.2227 7.45312 12.2227 7.37109C12.2227 7.26172 12.168 7.125 12.0859 7.07031ZM9.92578 4.9375L9.625 4.63672C9.54297 4.58203 9.40625 4.52734 9.29688 4.52734C9.1875 4.52734 9.05078 4.58203 8.96875 4.66406C7.68359 6.05859 7 7.86328 7 9.75C7 11.6641 7.68359 13.4414 8.96875 14.8633C9.05078 14.9453 9.1875 15.0273 9.29688 15.0273C9.40625 15.0273 9.54297 14.9727 9.625 14.8906L9.92578 14.5898C10.0898 14.4258 10.0898 14.1797 9.92578 13.9883C9.02344 13.0039 8.3125 11.1172 8.3125 9.77734C8.3125 8.4375 9.02344 6.52344 9.92578 5.53906C10.0898 5.34766 10.0898 5.10156 9.92578 4.9375ZM20.7539 4.66406C20.6719 4.58203 20.5352 4.5 20.4258 4.5C20.3164 4.5 20.1797 4.55469 20.125 4.63672L19.7969 4.9375C19.6328 5.10156 19.6328 5.34766 19.7969 5.53906C20.6992 6.52344 21.4102 8.41015 21.4102 9.77734C21.4102 11.1172 20.6992 13.0039 19.7969 13.9883C19.6328 14.1797 19.6328 14.4258 19.7969 14.5898L20.125 14.8906C20.1797 14.9453 20.3164 15 20.4258 15C20.5352 15 20.6719 14.9453 20.7539 14.8633C22.0391 13.4414 22.75 11.6641 22.75 9.75C22.75 7.86328 22.0391 6.05859 20.7539 4.66406ZM14.875 8.21875C14.0273 8.21875 13.3438 8.92969 13.3438 9.75C13.3438 10.5977 14.0273 11.2812 14.875 11.2812C15.6953 11.2812 16.4062 10.5977 16.4062 9.75C16.4062 8.92969 15.6953 8.21875 14.875 8.21875ZM17.9375 6.76953L17.6367 7.07031C17.5547 7.125 17.5 7.26172 17.5 7.37109C17.5 7.45312 17.5273 7.5625 17.582 7.61719C18.0195 8.13672 18.3477 9.09375 18.3477 9.75C18.3477 10.4336 18.0195 11.3906 17.582 11.9102C17.5273 11.9648 17.5 12.0742 17.5 12.1562C17.5 12.2656 17.5547 12.4023 17.6367 12.457L17.9375 12.7578C18.0195 12.8398 18.1562 12.8945 18.2383 12.8945C18.375 12.8945 18.5117 12.8125 18.5938 12.7305C19.1953 12.0195 19.6875 10.6797 19.6875 9.75C19.6875 8.84765 19.1953 7.50781 18.5938 6.79687C18.5117 6.71484 18.375 6.63281 18.2383 6.63281C18.1562 6.63281 18.0195 6.6875 17.9375 6.76953Z" fill="#FF5E32"/>
</svg>
